<svg width="475" height="607" viewBox="0 0 475 607" fill="none" xmlns="http://www.w3.org/2000/svg">
<mask id="mask0_99_7" style="mask-type:luminance" maskUnits="userSpaceOnUse" x="0" y="0" width="475" height="577">
<path d="M0 0H475V576.287H0V0Z" fill="white"/>
</mask>
<g mask="url(#mask0_99_7)">
<path d="M464.65 267.015C462.521 265.509 459.192 264.512 455.39 264.512H444.585C439.255 264.512 434.798 266.457 433.416 269.078H348.355L295.147 131.899C307.062 124.938 314.411 115.689 314.411 105.521C314.411 90.4252 298.676 76.9527 273.318 70.3338C268.37 68.5837 263.04 67.2052 257.492 66.1688C257.547 66.12 257.619 66.0808 257.692 66.032L266.078 58.7091C267.606 57.3697 268.407 55.8347 268.407 54.2704V11.0372C268.407 7.00911 263.131 3.6361 256.091 2.78551C253.217 1.15278 249.161 0.126205 244.649 0.126205H222.402C213.688 0.126205 206.576 3.9294 206.576 8.60274V51.836C206.576 53.4003 207.394 54.9352 208.922 56.2747L217.327 63.5975C217.8 64.0179 218.382 64.3992 218.982 64.7708C185.729 68.3882 160.607 84.1974 160.607 103.086C160.607 113.137 167.647 122.474 179.817 129.542L125.699 269.078H39.1106C37.2551 267.953 34.672 267.2 31.7433 267.015C29.615 265.509 26.2679 264.512 22.466 264.512H11.6606C5.2574 264.512 0.0366211 267.308 0.0366211 270.74V278.356C0.0366211 281.563 4.56615 284.173 10.3508 284.525C12.4792 286.04 15.8263 287.038 19.6282 287.038H30.4336C35.7453 287.038 40.2021 285.092 41.5846 282.472H120.515L29.8333 516.315C29.4149 517.361 29.4876 518.417 30.0152 519.433L46.9691 551.99C47.442 552.9 48.2606 553.701 49.3157 554.395C49.2793 555.725 49.1702 561.738 49.3157 564.016C49.6431 568.601 54.0453 571.749 56.3919 573.05L57.1378 573.509L57.8654 573.636L58.8841 573.734C59.1933 573.734 59.5026 573.705 59.8846 573.646L60.7577 573.441L61.1216 573.236C62.2676 574.233 63.45 574.995 64.3595 575.484L65.1054 575.944L65.8148 576.071L66.8335 576.169C67.1427 576.169 67.452 576.139 67.834 576.081L68.7072 575.875L69.1074 575.65C71.7086 574.184 76.129 571.026 76.4201 566.45C76.5838 564.114 76.4565 557.837 76.4383 556.742C76.7657 556.498 77.1477 556.282 77.4388 556.009C78.2392 555.236 78.8395 554.386 79.1851 553.476L86.7343 534.011C96.2481 531.4 102.779 526.101 102.779 520.001C102.779 516.197 100.25 512.707 96.048 509.979L184.292 282.472H219.328V304.685H227.277V307.119H259.347V282.472H291.673L378.952 507.545C374.75 510.263 372.222 513.753 372.222 517.556C372.222 523.667 378.752 528.966 388.266 531.576L395.815 551.042C396.361 552.45 397.489 553.731 399.09 554.806C399.053 556.742 398.962 561.953 399.108 564.016C399.417 568.601 403.819 571.749 406.184 573.05L406.93 573.509L407.639 573.636L408.676 573.734C408.986 573.734 409.295 573.705 409.695 573.646L410.55 573.441L410.914 573.236C412.06 574.233 413.242 574.995 414.134 575.484L414.879 575.944L415.589 576.071L416.626 576.169C416.935 576.169 417.244 576.139 417.644 576.081L418.499 575.875L418.9 575.65C421.501 574.184 425.903 571.026 426.212 566.45C426.34 564.417 426.267 559.323 426.231 557.338C426.594 556.967 426.922 556.585 427.14 556.165L445.003 521.868C445.531 520.841 445.586 519.795 445.185 518.759L353.54 282.472H435.908C437.764 283.596 440.347 284.349 443.275 284.525C445.404 286.04 448.751 287.038 452.535 287.038H463.34C469.761 287.038 474.982 284.242 474.982 280.8V273.174C474.964 269.987 470.434 267.376 464.65 267.015ZM177.634 105.521C177.634 86.6513 206.267 71.2919 241.466 71.2919C251.052 71.2919 260.257 72.4065 268.861 74.5867C286.725 80.9612 297.385 91.5984 297.385 103.086C297.385 110.135 293.383 116.696 286.525 122.141C283.796 120.724 280.594 119.58 276.993 118.886C272.318 116.823 266.351 115.591 259.984 115.591C258.147 115.591 256.291 115.698 254.491 115.894C247.469 116.676 241.429 118.886 237.5 122.102C236.936 122.562 236.445 123.041 235.972 123.52C232.862 121.408 228.805 119.834 224.112 118.935C220.783 117.458 216.89 116.383 212.561 115.894C210.741 115.698 208.886 115.591 207.067 115.591C198.19 115.591 190.168 117.996 185.238 121.711C180.326 116.803 177.634 111.26 177.634 105.521ZM251.398 246.865V244.42H219.328V269.078H189.476L234.117 154.004C236.445 154.415 238.883 154.698 241.484 154.698C241.684 154.698 241.884 154.669 242.084 154.669L286.47 269.078H259.347V246.865H251.398Z" fill="#241C1D"/>
</g>
<path fill-rule="evenodd" clip-rule="evenodd" d="M333.257 372.84C336.095 372.822 337.314 373.713 337.75 375.114C338.569 377.624 339.497 382.572 335.076 384.191C331.438 385.501 323.78 386.465 319.705 387.101C315.776 387.684 314.793 385.355 316.176 381.899C318.704 375.477 324.453 374.131 329.837 373.204C331.183 372.967 332.311 372.84 333.257 372.84ZM286.579 324.088C276.811 324.088 266.842 324.034 257.292 325.38C252.853 325.98 250.034 328.6 247.96 331.619C244.686 336.476 242.23 341.497 240.156 346.645C242.394 347.718 244.267 349.137 245.886 350.702C248.015 345.517 250.852 340.624 254 335.494C255.8 332.583 258.474 331.001 261.385 330.819C269.08 330.273 278.175 330 286.598 329.964C295.02 330 304.134 330.273 311.81 330.819C314.739 331.001 317.413 332.583 319.214 335.494C323.07 341.752 326.508 347.645 328.673 354.194C328.673 354.194 304.516 356.614 286.598 356.614C271.663 356.614 255.273 355.158 249.306 354.613C253.399 361.289 256.765 368.71 259.348 375.296H309.063C310.955 375.568 311.392 377.515 310.519 379.643C308.663 384.155 303.915 387.192 299.095 387.192H279.976C279.994 388.429 279.921 389.648 279.612 390.794C279.285 391.922 278.903 393.214 278.303 394.487C288.18 393.941 297.967 393.905 307.462 393.905C319.669 393.905 332.439 393.923 345.19 395.105V374.368C345.19 371.621 344.081 368.529 342.553 365.618L344.499 365.181C349.611 363.999 350.684 362.271 351.612 358.796C352.467 355.631 350.502 353.103 347.246 353.103H335.531C332.93 345.754 329.91 338.495 325.253 331.619C323.216 328.618 320.342 325.998 315.921 325.398C306.353 324.052 296.384 324.088 286.579 324.088Z" fill="white"/>
<path fill-rule="evenodd" clip-rule="evenodd" d="M175.869 407.167H225.494C227.604 407.476 228.095 409.604 227.131 411.969C225.076 416.953 219.837 420.3 214.507 420.3H186.911C181.563 420.3 176.306 416.953 174.269 411.969C173.286 409.604 173.778 407.167 175.869 407.167ZM152.894 404.838C158.861 405.875 165.21 407.367 168.029 414.479C169.539 418.318 168.448 420.882 164.118 420.209C159.607 419.536 151.13 418.481 147.11 417.008C142.235 415.189 143.271 409.75 144.145 406.985C146.891 403.747 149.311 404.438 152.894 404.838ZM200.7 357.087C209.996 357.087 220.055 357.414 228.55 357.997C231.788 358.215 234.735 359.961 236.754 363.181C241.011 370.112 244.795 376.624 247.196 383.828C247.196 383.828 220.51 386.52 200.7 386.52C180.89 386.52 154.204 383.828 154.204 383.828C156.605 376.588 160.389 370.112 164.664 363.181C166.647 359.961 169.612 358.215 172.813 357.997C181.327 357.414 191.386 357.087 200.7 357.087ZM200.7 350.575C189.895 350.575 178.871 350.52 168.302 352.012C163.409 352.667 160.262 355.559 157.988 358.888C152.858 366.492 149.529 374.514 146.619 382.627H133.685C130.065 382.627 127.937 385.41 128.864 388.921C129.883 392.778 131.047 394.669 136.705 395.979L138.851 396.488C137.177 399.708 135.941 403.11 135.941 406.148V431.088C135.941 432.324 136.25 433.452 136.668 434.507C150.42 433.325 164.118 433.325 177.234 433.325C193.46 433.325 210.523 433.252 227.441 435.526C229.496 430.342 231.879 425.248 234.226 419.937C240.047 406.603 250.034 397.744 261.239 395.979C262.913 395.743 264.641 395.688 266.333 395.452C270.444 394.888 271.644 392.323 272.536 388.921C273.463 385.428 271.317 382.627 267.715 382.627H254.781C251.871 374.514 248.56 366.492 243.394 358.888C241.138 355.559 237.991 352.667 233.116 352.012C222.529 350.538 211.505 350.575 200.7 350.575Z" fill="white"/>
<mask id="mask1_99_7" style="mask-type:luminance" maskUnits="userSpaceOnUse" x="232" y="402" width="177" height="150">
<path d="M232.844 402.819H408.204V551.838H232.844V402.819Z" fill="white"/>
</mask>
<g mask="url(#mask1_99_7)">
<path fill-rule="evenodd" clip-rule="evenodd" d="M378.789 478.565C383.137 478.511 384.956 479.893 385.647 482.04C386.902 485.86 388.321 493.427 381.554 495.901C375.988 497.939 364.309 499.394 358.051 500.34C352.085 501.249 350.575 497.702 352.649 492.39C356.542 482.586 365.328 480.53 373.568 479.093C375.606 478.729 377.334 478.584 378.789 478.565ZM307.463 404.019C292.51 404.019 277.248 403.946 262.658 405.984C255.873 406.948 251.507 410.932 248.397 415.534C243.467 422.792 239.793 430.378 236.646 438.036C240.047 439.564 243.012 441.565 245.541 443.839C248.761 436.235 252.963 429.014 257.601 421.482C260.348 417.008 264.459 414.588 268.916 414.297C280.686 413.497 294.583 413.024 307.463 413.006C320.324 413.024 334.221 413.497 346.009 414.297C350.448 414.588 354.559 417.008 357.306 421.482C363.218 431.033 368.457 440.037 371.749 450.042C371.749 450.042 334.858 453.753 307.463 453.753C285.361 453.753 261.785 451.698 251.653 450.788C251.671 450.824 251.744 450.897 251.762 450.934V450.988C258.766 461.302 262.859 471.871 266.897 482.313H341.771C344.681 482.749 345.354 485.696 344.008 488.952C341.188 495.865 333.912 500.485 326.527 500.485H298.531C298.567 502.395 298.349 504.269 297.876 506.052H297.858C296.912 509.581 295.402 514.147 291.564 517.949C289.781 519.713 287.216 520.095 285.051 521.15C285.743 523.715 287.089 525.88 287.325 528.663H360.944V543.998C360.944 547.163 363.454 549.692 366.601 549.692H382.718C385.847 549.692 388.394 547.163 388.394 543.998V527.845C393.051 526.044 397.016 521.168 397.016 515.402V480.894C397.016 476.692 395.324 471.999 392.978 467.542L395.961 466.851C403.783 465.013 405.402 462.376 406.803 457.064C408.113 452.243 405.129 448.369 400.127 448.369H382.263C378.243 437.145 373.659 426.03 366.51 415.534C363.381 410.932 359.034 406.948 352.248 406.002C337.659 403.946 322.397 404.019 307.463 404.019Z" fill="white"/>
</g>
<mask id="mask2_99_7" style="mask-type:luminance" maskUnits="userSpaceOnUse" x="65" y="440" width="224" height="167">
<path d="M65.9238 440.073H288.726V606.356H65.9238V440.073Z" fill="white"/>
</mask>
<g mask="url(#mask2_99_7)">
<path fill-rule="evenodd" clip-rule="evenodd" d="M177.27 444.494C193.787 444.494 210.632 444.439 226.804 446.695C234.262 447.714 239.082 452.152 242.539 457.246C250.434 468.833 255.509 481.112 259.947 493.518H279.721C285.233 493.518 288.525 497.811 287.088 503.141C285.524 509.017 283.741 511.928 275.082 513.947L271.79 514.711C274.373 519.622 276.265 524.843 276.265 529.482V567.61C276.265 573.995 271.862 579.379 266.733 581.38V599.244C266.733 602.718 263.913 605.52 260.439 605.52H242.63C239.155 605.52 236.372 602.718 236.372 599.244V582.253H118.168V599.244C118.168 602.718 115.348 605.52 111.892 605.52H94.083C90.5904 605.52 87.8071 602.718 87.8071 599.244V581.38C82.6773 579.379 78.2569 574.013 78.2569 567.61V529.482C78.2569 524.843 80.1488 519.622 82.7319 514.711L79.4212 513.947C70.7805 511.928 68.9978 509.035 67.4334 503.141C66.0145 497.811 69.307 493.518 74.8007 493.518H94.5742C99.0309 481.112 104.106 468.833 111.983 457.246C115.439 452.152 120.26 447.714 127.736 446.695C143.871 444.439 160.734 444.494 177.27 444.494ZM177.27 454.444C163.026 454.463 147.655 454.954 134.649 455.845C129.719 456.191 125.189 458.865 122.17 463.795C115.639 474.382 109.854 484.296 106.18 495.392C106.18 495.392 146.982 499.485 177.27 499.485C207.539 499.485 248.36 495.392 248.36 495.392C244.685 484.332 238.882 474.382 232.352 463.795C229.314 458.865 224.784 456.191 219.855 455.845C206.848 454.954 191.477 454.463 177.27 454.444ZM250.306 527.499C241.211 529.082 231.497 531.355 227.222 542.215C224.93 548.055 226.567 551.984 233.189 550.983C240.083 549.928 252.998 548.327 259.165 546.072C266.642 543.325 265.077 534.975 263.695 530.755C262.676 527.572 259.42 525.916 250.306 527.499ZM90.8268 530.755C89.4443 534.975 87.8617 543.325 95.3564 546.072C101.487 548.327 114.42 549.928 121.333 550.983C127.954 551.984 129.61 548.055 127.3 542.215C123.025 531.355 113.311 529.082 104.197 527.499C95.0835 525.916 91.8637 527.572 90.8268 530.755ZM215.198 531.046H139.306C136.104 531.046 135.376 534.775 136.85 538.395C139.979 546.017 148.019 551.147 156.15 551.147H198.353C206.521 551.147 214.543 546.017 217.672 538.395C219.145 534.775 218.381 531.519 215.198 531.046Z" fill="white"/>
</g>
</svg>
